REM DIRINDEX 1\2,1\4,1\5,1\6,1\7,1\3\8,1\3\9,1\3\10
REM DIRNAME folder01,folder02,folder03,folder04,folder05,folder06,folder07,folder08,folder09,folder10
TITLE ""
FILE "DB4500_5th_2A_42.mp3" MP3
  TRACK 01 AUDIO
    TITLE "0:"
    INDEX 01 00:00:00
  TRACK 02 AUDIO
    TITLE "8:cjc113_1573"
    INDEX 01 00:00:05
  TRACK 03 AUDIO
    TITLE "0:"
    INDEX 01 00:01:28
  TRACK 04 AUDIO
    TITLE "9:cjc113_1574"
    INDEX 01 00:01:52
  TRACK 05 AUDIO
    TITLE "0:"
    INDEX 01 00:03:08
  TRACK 06 AUDIO
    TITLE "10:cjc113_1575"
    INDEX 01 00:03:29
  TRACK 07 AUDIO
    TITLE "0:"
    INDEX 01 00:06:57
  TRACK 08 AUDIO
    TITLE "8:cjc113_1576"
    INDEX 01 00:07:31
  TRACK 09 AUDIO
    TITLE "0:"
    INDEX 01 00:08:50
  TRACK 10 AUDIO
    TITLE "9:cjc113_1577"
    INDEX 01 00:08:73
  TRACK 11 AUDIO
    TITLE "0:"
    INDEX 01 00:10:45
  TRACK 12 AUDIO
    TITLE "10:cjc113_1578"
    INDEX 01 00:10:66
  TRACK 13 AUDIO
    TITLE "0:"
    INDEX 01 00:14:00
  TRACK 14 AUDIO
    TITLE "8:cjc113_1579"
    INDEX 01 00:14:49
  TRACK 15 AUDIO
    TITLE "0:"
    INDEX 01 00:16:02
  TRACK 16 AUDIO
    TITLE "9:cjc113_1580"
    INDEX 01 00:16:22
  TRACK 17 AUDIO
    TITLE "0:"
    INDEX 01 00:17:57
  TRACK 18 AUDIO
    TITLE "10:cjc113_1581"
    INDEX 01 00:18:05
  TRACK 19 AUDIO
    TITLE "0:"
    INDEX 01 00:21:39
  TRACK 20 AUDIO
    TITLE "8:cjc113_1582"
    INDEX 01 00:22:09
  TRACK 21 AUDIO
    TITLE "0:"
    INDEX 01 00:23:22
  TRACK 22 AUDIO
    TITLE "9:cjc113_1583"
    INDEX 01 00:23:44
  TRACK 23 AUDIO
    TITLE "0:"
    INDEX 01 00:25:03
  TRACK 24 AUDIO
    TITLE "10:cjc113_1584"
    INDEX 01 00:25:27
  TRACK 25 AUDIO
    TITLE "0:"
    INDEX 01 00:28:62
  TRACK 26 AUDIO
    TITLE "8:cjc113_1585"
    INDEX 01 00:29:36
  TRACK 27 AUDIO
    TITLE "0:"
    INDEX 01 00:30:48
  TRACK 28 AUDIO
    TITLE "9:cjc113_1586"
    INDEX 01 00:30:69
  TRACK 29 AUDIO
    TITLE "0:"
    INDEX 01 00:32:23
  TRACK 30 AUDIO
    TITLE "10:cjc113_1587"
    INDEX 01 00:32:48
  TRACK 31 AUDIO
    TITLE "0:"
    INDEX 01 00:35:37
  TRACK 32 AUDIO
    TITLE "8:cjc113_1588"
    INDEX 01 00:35:72
  TRACK 33 AUDIO
    TITLE "0:"
    INDEX 01 00:37:18
  TRACK 34 AUDIO
    TITLE "9:cjc113_1589"
    INDEX 01 00:37:40
  TRACK 35 AUDIO
    TITLE "0:"
    INDEX 01 00:39:07
  TRACK 36 AUDIO
    TITLE "10:cjc113_1590"
    INDEX 01 00:39:31
  TRACK 37 AUDIO
    TITLE "0:"
    INDEX 01 00:42:45
  TRACK 38 AUDIO
    TITLE "8:cjc113_1591"
    INDEX 01 00:43:15
  TRACK 39 AUDIO
    TITLE "0:"
    INDEX 01 00:44:50
  TRACK 40 AUDIO
    TITLE "9:cjc113_1592"
    INDEX 01 00:44:71
  TRACK 41 AUDIO
    TITLE "0:"
    INDEX 01 00:46:37
  TRACK 42 AUDIO
    TITLE "10:cjc113_1593"
    INDEX 01 00:46:54
  TRACK 43 AUDIO
    TITLE "0:"
    INDEX 01 00:50:60
  TRACK 44 AUDIO
    TITLE "8:cjc113_1594"
    INDEX 01 00:51:24
  TRACK 45 AUDIO
    TITLE "0:"
    INDEX 01 00:52:30
  TRACK 46 AUDIO
    TITLE "9:cjc113_1595"
    INDEX 01 00:52:49
  TRACK 47 AUDIO
    TITLE "0:"
    INDEX 01 00:53:60
  TRACK 48 AUDIO
    TITLE "10:cjc113_1596"
    INDEX 01 00:54:03
  TRACK 49 AUDIO
    TITLE "0:"
    INDEX 01 00:56:65
  TRACK 50 AUDIO
    TITLE "8:cjc113_1597"
    INDEX 01 00:57:33
  TRACK 51 AUDIO
    TITLE "0:"
    INDEX 01 00:58:40
  TRACK 52 AUDIO
    TITLE "9:cjc113_1598"
    INDEX 01 00:58:56
  TRACK 53 AUDIO
    TITLE "0:"
    INDEX 01 01:00:25
  TRACK 54 AUDIO
    TITLE "10:cjc113_1599"
    INDEX 01 01:00:41
  TRACK 55 AUDIO
    TITLE "0:"
    INDEX 01 01:05:03
  TRACK 56 AUDIO
    TITLE "10:cjc113_1600"
    INDEX 01 01:05:46
  TRACK 57 AUDIO
    TITLE "0:"
    INDEX 01 01:09:03
  TRACK 58 AUDIO
    TITLE "8:cjc113_1601"
    INDEX 01 01:09:52
  TRACK 59 AUDIO
    TITLE "0:"
    INDEX 01 01:10:53
  TRACK 60 AUDIO
    TITLE "9:cjc113_1602"
    INDEX 01 01:11:00
  TRACK 61 AUDIO
    TITLE "0:"
    INDEX 01 01:12:13
  TRACK 62 AUDIO
    TITLE "10:cjc113_1603"
    INDEX 01 01:12:28
  TRACK 63 AUDIO
    TITLE "0:"
    INDEX 01 01:14:21
  TRACK 64 AUDIO
    TITLE "8:cjc113_1604"
    INDEX 01 01:14:63
  TRACK 65 AUDIO
    TITLE "0:"
    INDEX 01 01:15:70
  TRACK 66 AUDIO
    TITLE "9:cjc113_1605"
    INDEX 01 01:16:11
  TRACK 67 AUDIO
    TITLE "0:"
    INDEX 01 01:17:20
  TRACK 68 AUDIO
    TITLE "10:cjc113_1606"
    INDEX 01 01:17:39
  TRACK 69 AUDIO
    TITLE "0:"
    INDEX 01 01:20:26
